<svg width="15" height="18" viewBox="0 0 15 18" fill="none" xmlns="http://www.w3.org/2000/svg">
<path fill-rule="evenodd" clip-rule="evenodd" d="M7.54631 16.8292L7.53681 16.8308L7.48061 16.8585L7.46477 16.8617L7.45369 16.8585L7.39748 16.83C7.38904 16.8279 7.3827 16.8295 7.37848 16.8348L7.37531 16.8427L7.36186 17.1815L7.36581 17.1974L7.37373 17.2077L7.45606 17.2662L7.46794 17.2694L7.47744 17.2662L7.55977 17.2077L7.56927 17.195L7.57244 17.1815L7.55898 16.8435C7.55687 16.835 7.55265 16.8303 7.54631 16.8292ZM7.75531 16.7398L7.74423 16.7414L7.59856 16.815L7.59065 16.8229L7.58827 16.8316L7.60252 17.172L7.60648 17.1815L7.61281 17.1879L7.77194 17.2607C7.78197 17.2633 7.78962 17.2612 7.7949 17.2544L7.79806 17.2433L7.77115 16.7572C7.76851 16.7472 7.76323 16.7414 7.75531 16.7398ZM7.18927 16.7414C7.18578 16.7393 7.18161 16.7386 7.17763 16.7395C7.17365 16.7403 7.17016 16.7427 7.1679 16.7461L7.16315 16.7572L7.13623 17.2433C7.13676 17.2528 7.14124 17.2591 7.14969 17.2623L7.16156 17.2607L7.32069 17.1871L7.32861 17.1807L7.33098 17.172L7.34523 16.8316L7.34286 16.8221L7.33494 16.8142L7.18927 16.7414Z" fill="#0F172A"/>
<path fill-rule="evenodd" clip-rule="evenodd" d="M1.53438 5.54167C1.53438 4.07193 2.11823 2.66238 3.1575 1.62312C4.19676 0.583852 5.6063 0 7.07605 0C8.54579 0 9.95533 0.583852 10.9946 1.62312C12.0339 2.66238 12.6177 4.07193 12.6177 5.54167V8.5215L14.0601 11.4063C14.1265 11.5391 14.1579 11.6867 14.1512 11.835C14.1445 11.9833 14.1001 12.1274 14.022 12.2537C13.944 12.38 13.8349 12.4842 13.7053 12.5565C13.5756 12.6288 13.4296 12.6667 13.2811 12.6667H10.143C9.96687 13.3461 9.57014 13.9478 9.01505 14.3774C8.45996 14.807 7.77794 15.04 7.07605 15.04C6.37416 15.04 5.69214 14.807 5.13705 14.3774C4.58196 13.9478 4.18523 13.3461 4.00913 12.6667H0.870962C0.722507 12.6667 0.576511 12.6288 0.44684 12.5565C0.31717 12.4842 0.20813 12.38 0.130077 12.2537C0.0520244 12.1274 0.00755069 11.9833 0.00087977 11.835C-0.00579115 11.6867 0.0255623 11.5391 0.0919622 11.4063L1.53438 8.5215V5.54167ZM5.70488 12.6667C5.84385 12.9073 6.04373 13.1072 6.28441 13.2462C6.5251 13.3851 6.79813 13.4583 7.07605 13.4583C7.35397 13.4583 7.62699 13.3851 7.86768 13.2462C8.10837 13.1072 8.30824 12.9073 8.44721 12.6667H5.70488ZM7.07605 1.58333C6.02623 1.58333 5.01941 2.00037 4.27708 2.7427C3.53475 3.48503 3.11771 4.49185 3.11771 5.54167V8.5215C3.1177 8.76718 3.06051 9.00949 2.95067 9.22925L2.02442 11.0833H12.1285L11.2022 9.22925C11.0921 9.00955 11.0346 8.76724 11.0344 8.5215V5.54167C11.0344 4.49185 10.6173 3.48503 9.87501 2.7427C9.13268 2.00037 8.12586 1.58333 7.07605 1.58333Z" fill="#0F172A"/>
</svg>
