<svg width="34" height="34" viewBox="0 0 34 34" fill="none" xmlns="http://www.w3.org/2000/svg">
<rect x="0.5" y="0.5" width="33" height="33" rx="11.5" fill="white"/>
<rect x="0.5" y="0.5" width="33" height="33" rx="11.5" stroke="#E6E8F0"/>
<path d="M21.0427 18.0873C20.6038 18.0873 20.2447 17.7282 20.2447 17.2893C20.2447 16.8504 20.6038 16.4913 21.0427 16.4913C21.4949 16.4913 21.8407 16.8504 21.8407 17.2893C21.8407 17.7282 21.4949 18.0873 21.0427 18.0873ZM12.9563 18.1006C12.5041 18.1006 12.1583 17.7282 12.1583 17.3026C12.1583 16.8637 12.5174 16.5046 12.9563 16.5046C13.3686 16.5046 13.7543 16.8371 13.7543 17.3026C13.7543 17.7415 13.3952 18.1006 12.9563 18.1006ZM17.0261 18.1006C16.5872 18.1006 16.2281 17.7415 16.2281 17.3026C16.2281 16.8504 16.6005 16.5046 17.0261 16.5046C17.4384 16.5046 17.8241 16.8371 17.8241 17.3026C17.8241 17.7415 17.465 18.1006 17.0261 18.1006Z" fill="black"/>
</svg>
