<svg width="14" height="14" viewBox="0 0 14 14" fill="none" xmlns="http://www.w3.org/2000/svg">
<path d="M6.74694 12.5784V7.46724C6.89569 7.48066 7.03861 7.48766 7.18911 7.48766C7.90253 7.48766 8.57394 7.30099 9.14328 6.96674V12.5772C9.14328 13.0567 9.02953 13.4108 8.80786 13.6471C8.58736 13.8822 8.29453 14 7.93811 14C7.58811 14 7.30986 13.8822 7.08178 13.6395C6.86128 13.4044 6.74694 13.0503 6.74694 12.5784ZM6.76036 0.330158C8.24494 -0.190759 9.93486 -0.162759 11.2048 0.905908C11.441 1.12116 11.7105 1.39182 11.8179 1.71091C11.9462 2.11457 11.3687 1.66832 11.2894 1.61349C10.8752 1.34924 10.4622 1.12757 9.99903 0.975324C7.50178 0.225741 5.14044 1.58024 3.67219 3.68374C3.05853 4.61357 2.65894 5.59241 2.33053 6.66866C2.29553 6.78649 2.26694 6.93991 2.20219 7.04316C2.13686 7.16158 2.17419 6.72466 2.17419 6.71066C2.22319 6.26557 2.31653 5.83566 2.43144 5.40574C3.10928 3.11324 4.60669 1.20516 6.76094 0.330158M9.63561 4.44791C9.63561 4.91513 9.45001 5.36322 9.11963 5.69359C8.78925 6.02397 8.34117 6.20958 7.87394 6.20958C7.40672 6.20958 6.95863 6.02397 6.62826 5.69359C6.29788 5.36322 6.11228 4.91513 6.11228 4.44791C6.11228 3.98068 6.29788 3.5326 6.62826 3.20222C6.95863 2.87185 7.40672 2.68624 7.87394 2.68624C8.34117 2.68624 8.78925 2.87185 9.11963 3.20222C9.45001 3.5326 9.63561 3.98068 9.63561 4.44791Z" fill="#667085"/>
</svg>
